solid Nemapointa4
facet normal -1.36747075974162e-017 -1.0 2.26731554147514e-033
outer loop
vertex -4.8683475024126 1.0 3.0
vertex -32.5 1.0 0.0
vertex -4.8683475024126 1.0 0.0
endloop
endfacet
facet normal -1.36747075974162e-017 -1.0 2.26731554147514e-033
outer loop
vertex -32.5 1.0 0.0
vertex -4.8683475024126 1.0 3.0
vertex -32.5 1.0 3.0
endloop
endfacet
facet normal 0.965925826289068 -0.258819045102521 0.0
outer loop
vertex -4.82962913144534 1.29409522551261 0.0
vertex -4.8683475024126 1.0 3.0
vertex -4.8683475024126 1.0 0.0
endloop
endfacet
facet normal 0.991444861373811 -0.130526192220051 -0.0
outer loop
vertex -4.8683475024126 1.0 3.0
vertex -4.82962913144534 1.29409522551261 0.0
vertex -4.82962913144534 1.29409522551261 3.0
endloop
endfacet
facet normal 0.866025403784439 -0.5 0.0
outer loop
vertex -4.33012701892219 2.5 0.0
vertex -4.82962913144534 1.29409522551261 3.0
vertex -4.82962913144534 1.29409522551261 0.0
endloop
endfacet
facet normal 0.965925826289068 -0.258819045102521 0.0
outer loop
vertex -4.82962913144534 1.29409522551261 3.0
vertex -4.33012701892219 2.5 0.0
vertex -4.33012701892219 2.5 3.0
endloop
endfacet
facet normal 0.707106781186547 -0.707106781186548 0.0
outer loop
vertex -3.53553390593274 3.53553390593274 0.0
vertex -4.33012701892219 2.5 3.0
vertex -4.33012701892219 2.5 0.0
endloop
endfacet
facet normal 0.866025403784439 -0.5 0.0
outer loop
vertex -4.33012701892219 2.5 3.0
vertex -3.53553390593274 3.53553390593274 0.0
vertex -3.53553390593274 3.53553390593274 3.0
endloop
endfacet
facet normal 0.5 -0.866025403784439 0.0
outer loop
vertex -2.5 4.33012701892219 3.0
vertex -3.53553390593274 3.53553390593274 0.0
vertex -2.5 4.33012701892219 0.0
endloop
endfacet
facet normal 0.707106781186547 -0.707106781186548 0.0
outer loop
vertex -3.53553390593274 3.53553390593274 0.0
vertex -2.5 4.33012701892219 3.0
vertex -3.53553390593274 3.53553390593274 3.0
endloop
endfacet
facet normal 0.258819045102521 -0.965925826289068 0.0
outer loop
vertex -1.2940952255126 4.82962913144534 3.0
vertex -2.5 4.33012701892219 0.0
vertex -1.2940952255126 4.82962913144534 0.0
endloop
endfacet
facet normal 0.5 -0.866025403784439 0.0
outer loop
vertex -2.5 4.33012701892219 0.0
vertex -1.2940952255126 4.82962913144534 3.0
vertex -2.5 4.33012701892219 3.0
endloop
endfacet
facet normal 4.45555494782345e-017 -1.0 0.0
outer loop
vertex 3.06161699786838e-016 5.0 3.0
vertex -1.2940952255126 4.82962913144534 0.0
vertex 3.06161699786838e-016 5.0 0.0
endloop
endfacet
facet normal 0.258819045102521 -0.965925826289068 0.0
outer loop
vertex -1.2940952255126 4.82962913144534 0.0
vertex 3.06161699786838e-016 5.0 3.0
vertex -1.2940952255126 4.82962913144534 3.0
endloop
endfacet
facet normal -0.258819045102521 -0.965925826289068 0.0
outer loop
vertex 1.2940952255126 4.82962913144534 3.0
vertex 3.06161699786838e-016 5.0 0.0
vertex 1.2940952255126 4.82962913144534 0.0
endloop
endfacet
facet normal 4.45555494782345e-017 -1.0 0.0
outer loop
vertex 3.06161699786838e-016 5.0 0.0
vertex 1.2940952255126 4.82962913144534 3.0
vertex 3.06161699786838e-016 5.0 3.0
endloop
endfacet
facet normal -0.5 -0.866025403784439 0.0
outer loop
vertex 2.5 4.33012701892219 3.0
vertex 1.2940952255126 4.82962913144534 0.0
vertex 2.5 4.33012701892219 0.0
endloop
endfacet
facet normal -0.258819045102521 -0.965925826289068 0.0
outer loop
vertex 1.2940952255126 4.82962913144534 0.0
vertex 2.5 4.33012701892219 3.0
vertex 1.2940952255126 4.82962913144534 3.0
endloop
endfacet
facet normal -0.707106781186548 -0.707106781186547 0.0
outer loop
vertex 3.53553390593274 3.53553390593274 3.0
vertex 2.5 4.33012701892219 0.0
vertex 3.53553390593274 3.53553390593274 0.0
endloop
endfacet
facet normal -0.5 -0.866025403784439 0.0
outer loop
vertex 2.5 4.33012701892219 0.0
vertex 3.53553390593274 3.53553390593274 3.0
vertex 2.5 4.33012701892219 3.0
endloop
endfacet
facet normal -0.707106781186548 -0.707106781186547 0.0
outer loop
vertex 3.53553390593274 3.53553390593274 3.0
vertex 4.33012701892219 2.5 0.0
vertex 4.33012701892219 2.5 3.0
endloop
endfacet
facet normal -0.866025403784439 -0.5 0.0
outer loop
vertex 4.33012701892219 2.5 0.0
vertex 3.53553390593274 3.53553390593274 3.0
vertex 3.53553390593274 3.53553390593274 0.0
endloop
endfacet
facet normal -0.866025403784439 -0.5 0.0
outer loop
vertex 4.33012701892219 2.5 3.0
vertex 4.82962913144534 1.2940952255126 0.0
vertex 4.82962913144534 1.2940952255126 3.0
endloop
endfacet
facet normal -0.965925826289068 -0.258819045102521 0.0
outer loop
vertex 4.82962913144534 1.2940952255126 0.0
vertex 4.33012701892219 2.5 3.0
vertex 4.33012701892219 2.5 0.0
endloop
endfacet
facet normal -0.965925826289068 -0.258819045102521 0.0
outer loop
vertex 4.82962913144534 1.2940952255126 3.0
vertex 4.8683475024126 1.0 0.0
vertex 4.8683475024126 1.0 3.0
endloop
endfacet
facet normal -0.99144486137381 -0.130526192220052 -0.0
outer loop
vertex 4.8683475024126 1.0 0.0
vertex 4.82962913144534 1.2940952255126 3.0
vertex 4.82962913144534 1.2940952255126 0.0
endloop
endfacet
facet normal -0.99144486137381 0.130526192220053 -0.0
outer loop
vertex 4.8683475024126 -1.0 3.0
vertex 4.82962913144534 -1.29409522551261 0.0
vertex 4.82962913144534 -1.29409522551261 3.0
endloop
endfacet
facet normal -0.965925826289068 0.258819045102522 0.0
outer loop
vertex 4.82962913144534 -1.29409522551261 0.0
vertex 4.8683475024126 -1.0 3.0
vertex 4.8683475024126 -1.0 0.0
endloop
endfacet
facet normal -0.965925826289068 0.258819045102522 0.0
outer loop
vertex 4.82962913144534 -1.29409522551261 3.0
vertex 4.33012701892219 -2.5 0.0
vertex 4.33012701892219 -2.5 3.0
endloop
endfacet
facet normal -0.866025403784438 0.500000000000001 0.0
outer loop
vertex 4.33012701892219 -2.5 0.0
vertex 4.82962913144534 -1.29409522551261 3.0
vertex 4.82962913144534 -1.29409522551261 0.0
endloop
endfacet
facet normal -0.866025403784438 0.500000000000001 0.0
outer loop
vertex 4.33012701892219 -2.5 3.0
vertex 3.53553390593274 -3.53553390593274 0.0
vertex 3.53553390593274 -3.53553390593274 3.0
endloop
endfacet
facet normal -0.707106781186547 0.707106781186548 0.0
outer loop
vertex 3.53553390593274 -3.53553390593274 0.0
vertex 4.33012701892219 -2.5 3.0
vertex 4.33012701892219 -2.5 0.0
endloop
endfacet
facet normal -0.5 0.866025403784439 0.0
outer loop
vertex 2.5 -4.3301270189222 3.0
vertex 3.53553390593274 -3.53553390593274 0.0
vertex 2.5 -4.3301270189222 0.0
endloop
endfacet
facet normal -0.707106781186547 0.707106781186548 0.0
outer loop
vertex 3.53553390593274 -3.53553390593274 0.0
vertex 2.5 -4.3301270189222 3.0
vertex 3.53553390593274 -3.53553390593274 3.0
endloop
endfacet
facet normal -0.25881904510252 0.965925826289069 0.0
outer loop
vertex 1.2940952255126 -4.82962913144534 3.0
vertex 2.5 -4.3301270189222 0.0
vertex 1.2940952255126 -4.82962913144534 0.0
endloop
endfacet
facet normal -0.5 0.866025403784439 0.0
outer loop
vertex 2.5 -4.3301270189222 0.0
vertex 1.2940952255126 -4.82962913144534 3.0
vertex 2.5 -4.3301270189222 3.0
endloop
endfacet
facet normal 3.20799956243289e-016 1.0 0.0
outer loop
vertex -9.18485099360515e-016 -5.0 3.0
vertex 1.2940952255126 -4.82962913144534 0.0
vertex -9.18485099360515e-016 -5.0 0.0
endloop
endfacet
facet normal -0.25881904510252 0.965925826289069 0.0
outer loop
vertex 1.2940952255126 -4.82962913144534 0.0
vertex -9.18485099360515e-016 -5.0 3.0
vertex 1.2940952255126 -4.82962913144534 3.0
endloop
endfacet
facet normal 0.258819045102521 0.965925826289068 0.0
outer loop
vertex -1.29409522551261 -4.82962913144534 3.0
vertex -9.18485099360515e-016 -5.0 0.0
vertex -1.29409522551261 -4.82962913144534 0.0
endloop
endfacet
facet normal 3.20799956243289e-016 1.0 0.0
outer loop
vertex -9.18485099360515e-016 -5.0 0.0
vertex -1.29409522551261 -4.82962913144534 3.0
vertex -9.18485099360515e-016 -5.0 3.0
endloop
endfacet
facet normal 0.500000000000001 0.866025403784438 0.0
outer loop
vertex -2.5 -4.33012701892219 3.0
vertex -1.29409522551261 -4.82962913144534 0.0
vertex -2.5 -4.33012701892219 0.0
endloop
endfacet
facet normal 0.258819045102521 0.965925826289068 0.0
outer loop
vertex -1.29409522551261 -4.82962913144534 0.0
vertex -2.5 -4.33012701892219 3.0
vertex -1.29409522551261 -4.82962913144534 3.0
endloop
endfacet
facet normal 0.707106781186548 0.707106781186547 0.0
outer loop
vertex -3.53553390593274 -3.53553390593274 3.0
vertex -2.5 -4.33012701892219 0.0
vertex -3.53553390593274 -3.53553390593274 0.0
endloop
endfacet
facet normal 0.500000000000001 0.866025403784438 0.0
outer loop
vertex -2.5 -4.33012701892219 0.0
vertex -3.53553390593274 -3.53553390593274 3.0
vertex -2.5 -4.33012701892219 3.0
endloop
endfacet
facet normal 0.866025403784439 0.5 0.0
outer loop
vertex -4.33012701892219 -2.5 0.0
vertex -3.53553390593274 -3.53553390593274 3.0
vertex -3.53553390593274 -3.53553390593274 0.0
endloop
endfacet
facet normal 0.707106781186548 0.707106781186547 0.0
outer loop
vertex -3.53553390593274 -3.53553390593274 3.0
vertex -4.33012701892219 -2.5 0.0
vertex -4.33012701892219 -2.5 3.0
endloop
endfacet
facet normal 0.965925826289069 0.258819045102519 0.0
outer loop
vertex -4.82962913144534 -1.2940952255126 0.0
vertex -4.33012701892219 -2.5 3.0
vertex -4.33012701892219 -2.5 0.0
endloop
endfacet
facet normal 0.866025403784439 0.5 0.0
outer loop
vertex -4.33012701892219 -2.5 3.0
vertex -4.82962913144534 -1.2940952255126 0.0
vertex -4.82962913144534 -1.2940952255126 3.0
endloop
endfacet
facet normal 0.991444861373811 0.130526192220048 0.0
outer loop
vertex -4.8683475024126 -1.0 0.0
vertex -4.82962913144534 -1.2940952255126 3.0
vertex -4.82962913144534 -1.2940952255126 0.0
endloop
endfacet
facet normal 0.965925826289069 0.258819045102519 0.0
outer loop
vertex -4.82962913144534 -1.2940952255126 3.0
vertex -4.8683475024126 -1.0 0.0
vertex -4.8683475024126 -1.0 3.0
endloop
endfacet
facet normal -0.0 1.0 -0.0
outer loop
vertex -32.5 -1.0 3.0
vertex -4.8683475024126 -1.0 0.0
vertex -32.5 -1.0 0.0
endloop
endfacet
facet normal -0.0 1.0 -0.0
outer loop
vertex -4.8683475024126 -1.0 0.0
vertex -32.5 -1.0 3.0
vertex -4.8683475024126 -1.0 3.0
endloop
endfacet
facet normal 0.866025403784439 -0.5 0.0
outer loop
vertex 2.1650635094611 -1.25 0.0
vertex 1.76776695296637 -1.76776695296637 3.0
vertex 1.76776695296637 -1.76776695296637 0.0
endloop
endfacet
facet normal 0.707106781186547 -0.707106781186548 0.0
outer loop
vertex 1.76776695296637 -1.76776695296637 3.0
vertex 2.1650635094611 -1.25 0.0
vertex 2.1650635094611 -1.25 3.0
endloop
endfacet
facet normal 0.965925826289068 -0.258819045102521 0.0
outer loop
vertex 2.41481456572267 -0.647047612756302 0.0
vertex 2.1650635094611 -1.25 3.0
vertex 2.1650635094611 -1.25 0.0
endloop
endfacet
facet normal 0.866025403784439 -0.5 0.0
outer loop
vertex 2.1650635094611 -1.25 3.0
vertex 2.41481456572267 -0.647047612756302 0.0
vertex 2.41481456572267 -0.647047612756302 3.0
endloop
endfacet
facet normal 1.0 5.34666593738814e-017 0.0
outer loop
vertex 2.5 -1.53080849893419e-016 0.0
vertex 2.41481456572267 -0.647047612756302 3.0
vertex 2.41481456572267 -0.647047612756302 0.0
endloop
endfacet
facet normal 0.965925826289068 -0.258819045102521 0.0
outer loop
vertex 2.41481456572267 -0.647047612756302 3.0
vertex 2.5 -1.53080849893419e-016 0.0
vertex 2.5 -1.53080849893419e-016 3.0
endloop
endfacet
facet normal 0.965925826289068 0.258819045102521 0.0
outer loop
vertex 2.41481456572267 0.647047612756302 0.0
vertex 2.5 -1.53080849893419e-016 3.0
vertex 2.5 -1.53080849893419e-016 0.0
endloop
endfacet
facet normal 1.0 5.34666593738814e-017 0.0
outer loop
vertex 2.5 -1.53080849893419e-016 3.0
vertex 2.41481456572267 0.647047612756302 0.0
vertex 2.41481456572267 0.647047612756302 3.0
endloop
endfacet
facet normal 0.866025403784439 0.5 0.0
outer loop
vertex 2.1650635094611 1.25 0.0
vertex 2.41481456572267 0.647047612756302 3.0
vertex 2.41481456572267 0.647047612756302 0.0
endloop
endfacet
facet normal 0.965925826289068 0.258819045102521 0.0
outer loop
vertex 2.41481456572267 0.647047612756302 3.0
vertex 2.1650635094611 1.25 0.0
vertex 2.1650635094611 1.25 3.0
endloop
endfacet
facet normal 0.707106781186548 0.707106781186547 0.0
outer loop
vertex 1.76776695296637 1.76776695296637 0.0
vertex 2.1650635094611 1.25 3.0
vertex 2.1650635094611 1.25 0.0
endloop
endfacet
facet normal 0.866025403784439 0.5 0.0
outer loop
vertex 2.1650635094611 1.25 3.0
vertex 1.76776695296637 1.76776695296637 0.0
vertex 1.76776695296637 1.76776695296637 3.0
endloop
endfacet
facet normal 0.5 0.866025403784439 0.0
outer loop
vertex 1.25 2.1650635094611 3.0
vertex 1.76776695296637 1.76776695296637 0.0
vertex 1.25 2.1650635094611 0.0
endloop
endfacet
facet normal 0.707106781186548 0.707106781186547 0.0
outer loop
vertex 1.76776695296637 1.76776695296637 0.0
vertex 1.25 2.1650635094611 3.0
vertex 1.76776695296637 1.76776695296637 3.0
endloop
endfacet
facet normal 0.258819045102521 0.965925826289068 0.0
outer loop
vertex 0.647047612756303 2.41481456572267 3.0
vertex 1.25 2.1650635094611 0.0
vertex 0.647047612756303 2.41481456572267 0.0
endloop
endfacet
facet normal 0.5 0.866025403784439 0.0
outer loop
vertex 1.25 2.1650635094611 0.0
vertex 0.647047612756303 2.41481456572267 3.0
vertex 1.25 2.1650635094611 3.0
endloop
endfacet
facet normal 1.78222197912938e-016 1.0 0.0
outer loop
vertex 3.06161699786838e-016 2.5 3.0
vertex 0.647047612756303 2.41481456572267 0.0
vertex 3.06161699786838e-016 2.5 0.0
endloop
endfacet
facet normal 0.258819045102521 0.965925826289068 0.0
outer loop
vertex 0.647047612756303 2.41481456572267 0.0
vertex 3.06161699786838e-016 2.5 3.0
vertex 0.647047612756303 2.41481456572267 3.0
endloop
endfacet
facet normal -0.25881904510252 0.965925826289068 0.0
outer loop
vertex -0.647047612756301 2.41481456572267 3.0
vertex 3.06161699786838e-016 2.5 0.0
vertex -0.647047612756301 2.41481456572267 0.0
endloop
endfacet
facet normal 1.78222197912938e-016 1.0 0.0
outer loop
vertex 3.06161699786838e-016 2.5 0.0
vertex -0.647047612756301 2.41481456572267 3.0
vertex 3.06161699786838e-016 2.5 3.0
endloop
endfacet
facet normal -0.5 0.866025403784439 0.0
outer loop
vertex -1.25 2.1650635094611 3.0
vertex -0.647047612756301 2.41481456572267 0.0
vertex -1.25 2.1650635094611 0.0
endloop
endfacet
facet normal -0.25881904510252 0.965925826289068 0.0
outer loop
vertex -0.647047612756301 2.41481456572267 0.0
vertex -1.25 2.1650635094611 3.0
vertex -0.647047612756301 2.41481456572267 3.0
endloop
endfacet
facet normal -0.707106781186547 0.707106781186548 0.0
outer loop
vertex -1.76776695296637 1.76776695296637 3.0
vertex -1.25 2.1650635094611 0.0
vertex -1.76776695296637 1.76776695296637 0.0
endloop
endfacet
facet normal -0.5 0.866025403784439 0.0
outer loop
vertex -1.25 2.1650635094611 0.0
vertex -1.76776695296637 1.76776695296637 3.0
vertex -1.25 2.1650635094611 3.0
endloop
endfacet
facet normal -0.707106781186547 0.707106781186548 0.0
outer loop
vertex -1.76776695296637 1.76776695296637 3.0
vertex -2.1650635094611 1.25 0.0
vertex -2.1650635094611 1.25 3.0
endloop
endfacet
facet normal -0.866025403784438 0.500000000000001 0.0
outer loop
vertex -2.1650635094611 1.25 0.0
vertex -1.76776695296637 1.76776695296637 3.0
vertex -1.76776695296637 1.76776695296637 0.0
endloop
endfacet
facet normal -0.866025403784438 0.500000000000001 0.0
outer loop
vertex -2.1650635094611 1.25 3.0
vertex -2.41481456572267 0.647047612756304 0.0
vertex -2.41481456572267 0.647047612756304 3.0
endloop
endfacet
facet normal -0.965925826289068 0.258819045102521 0.0
outer loop
vertex -2.41481456572267 0.647047612756304 0.0
vertex -2.1650635094611 1.25 3.0
vertex -2.1650635094611 1.25 0.0
endloop
endfacet
facet normal -0.965925826289068 0.258819045102521 0.0
outer loop
vertex -2.41481456572267 0.647047612756304 3.0
vertex -2.5 4.59242549680257e-016 0.0
vertex -2.5 4.59242549680257e-016 3.0
endloop
endfacet
facet normal -1.0 3.20799956243289e-016 0.0
outer loop
vertex -2.5 4.59242549680257e-016 0.0
vertex -2.41481456572267 0.647047612756304 3.0
vertex -2.41481456572267 0.647047612756304 0.0
endloop
endfacet
facet normal -1.0 3.20799956243289e-016 0.0
outer loop
vertex -2.5 4.59242549680257e-016 3.0
vertex -2.41481456572267 -0.647047612756301 0.0
vertex -2.41481456572267 -0.647047612756301 3.0
endloop
endfacet
facet normal -0.965925826289068 -0.25881904510252 0.0
outer loop
vertex -2.41481456572267 -0.647047612756301 0.0
vertex -2.5 4.59242549680257e-016 3.0
vertex -2.5 4.59242549680257e-016 0.0
endloop
endfacet
facet normal -0.965925826289068 -0.25881904510252 0.0
outer loop
vertex -2.41481456572267 -0.647047612756301 3.0
vertex -2.1650635094611 -1.25 0.0
vertex -2.1650635094611 -1.25 3.0
endloop
endfacet
facet normal -0.866025403784439 -0.499999999999999 0.0
outer loop
vertex -2.1650635094611 -1.25 0.0
vertex -2.41481456572267 -0.647047612756301 3.0
vertex -2.41481456572267 -0.647047612756301 0.0
endloop
endfacet
facet normal -0.866025403784439 -0.499999999999999 0.0
outer loop
vertex -2.1650635094611 -1.25 3.0
vertex -1.76776695296637 -1.76776695296637 0.0
vertex -1.76776695296637 -1.76776695296637 3.0
endloop
endfacet
facet normal -0.707106781186548 -0.707106781186547 0.0
outer loop
vertex -1.76776695296637 -1.76776695296637 0.0
vertex -2.1650635094611 -1.25 3.0
vertex -2.1650635094611 -1.25 0.0
endloop
endfacet
facet normal -0.500000000000001 -0.866025403784438 0.0
outer loop
vertex -1.25 -2.1650635094611 3.0
vertex -1.76776695296637 -1.76776695296637 0.0
vertex -1.25 -2.1650635094611 0.0
endloop
endfacet
facet normal -0.707106781186548 -0.707106781186547 0.0
outer loop
vertex -1.76776695296637 -1.76776695296637 0.0
vertex -1.25 -2.1650635094611 3.0
vertex -1.76776695296637 -1.76776695296637 3.0
endloop
endfacet
facet normal -0.258819045102521 -0.965925826289068 0.0
outer loop
vertex -0.647047612756304 -2.41481456572267 3.0
vertex -1.25 -2.1650635094611 0.0
vertex -0.647047612756304 -2.41481456572267 0.0
endloop
endfacet
facet normal -0.500000000000001 -0.866025403784438 0.0
outer loop
vertex -1.25 -2.1650635094611 0.0
vertex -0.647047612756304 -2.41481456572267 3.0
vertex -1.25 -2.1650635094611 3.0
endloop
endfacet
facet normal -5.34666593738814e-017 -1.0 0.0
outer loop
vertex 0.0 -2.5 3.0
vertex -0.647047612756304 -2.41481456572267 0.0
vertex 0.0 -2.5 0.0
endloop
endfacet
facet normal -0.258819045102521 -0.965925826289068 0.0
outer loop
vertex -0.647047612756304 -2.41481456572267 0.0
vertex 0.0 -2.5 3.0
vertex -0.647047612756304 -2.41481456572267 3.0
endloop
endfacet
facet normal 0.258819045102521 -0.965925826289068 0.0
outer loop
vertex 0.647047612756302 -2.41481456572267 3.0
vertex 0.0 -2.5 0.0
vertex 0.647047612756302 -2.41481456572267 0.0
endloop
endfacet
facet normal -5.34666593738814e-017 -1.0 0.0
outer loop
vertex 0.0 -2.5 0.0
vertex 0.647047612756302 -2.41481456572267 3.0
vertex 0.0 -2.5 3.0
endloop
endfacet
facet normal 0.5 -0.866025403784439 0.0
outer loop
vertex 1.25 -2.1650635094611 3.0
vertex 0.647047612756302 -2.41481456572267 0.0
vertex 1.25 -2.1650635094611 0.0
endloop
endfacet
facet normal 0.258819045102521 -0.965925826289068 0.0
outer loop
vertex 0.647047612756302 -2.41481456572267 0.0
vertex 1.25 -2.1650635094611 3.0
vertex 0.647047612756302 -2.41481456572267 3.0
endloop
endfacet
facet normal 0.707106781186547 -0.707106781186548 0.0
outer loop
vertex 1.76776695296637 -1.76776695296637 3.0
vertex 1.25 -2.1650635094611 0.0
vertex 1.76776695296637 -1.76776695296637 0.0
endloop
endfacet
facet normal 0.5 -0.866025403784439 0.0
outer loop
vertex 1.25 -2.1650635094611 0.0
vertex 1.76776695296637 -1.76776695296637 3.0
vertex 1.25 -2.1650635094611 3.0
endloop
endfacet
facet normal 0.0 0.0 -1.0
outer loop
vertex -4.8683475024126 1.0 0.0
vertex -32.5 -1.0 0.0
vertex -32.5 1.0 0.0
endloop
endfacet
facet normal 0.0 0.0 -1.0
outer loop
vertex -32.5 -1.0 0.0
vertex -4.8683475024126 1.0 0.0
vertex -4.8683475024126 -1.0 0.0
endloop
endfacet
facet normal 0.0 0.0 -1.0
outer loop
vertex -4.8683475024126 -1.0 0.0
vertex -4.8683475024126 1.0 0.0
vertex -4.82962913144534 1.29409522551261 0.0
endloop
endfacet
facet normal 0.0 0.0 -1.0
outer loop
vertex -4.8683475024126 -1.0 0.0
vertex -4.82962913144534 1.29409522551261 0.0
vertex -4.82962913144534 -1.2940952255126 0.0
endloop
endfacet
facet normal 0.0 0.0 -1.0
outer loop
vertex -4.82962913144534 -1.2940952255126 0.0
vertex -4.82962913144534 1.29409522551261 0.0
vertex -4.33012701892219 -2.5 0.0
endloop
endfacet
facet normal 0.0 0.0 -1.0
outer loop
vertex -4.33012701892219 -2.5 0.0
vertex -4.82962913144534 1.29409522551261 0.0
vertex -4.33012701892219 2.5 0.0
endloop
endfacet
facet normal 0.0 0.0 -1.0
outer loop
vertex -4.33012701892219 -2.5 0.0
vertex -4.33012701892219 2.5 0.0
vertex -3.53553390593274 -3.53553390593274 0.0
endloop
endfacet
facet normal 0.0 0.0 -1.0
outer loop
vertex -3.53553390593274 -3.53553390593274 0.0
vertex -4.33012701892219 2.5 0.0
vertex -3.53553390593274 3.53553390593274 0.0
endloop
endfacet
facet normal 0.0 0.0 -1.0
outer loop
vertex -3.53553390593274 -3.53553390593274 0.0
vertex -3.53553390593274 3.53553390593274 0.0
vertex -2.5 -4.33012701892219 0.0
endloop
endfacet
facet normal 0.0 0.0 -1.0
outer loop
vertex -2.5 -4.33012701892219 0.0
vertex -3.53553390593274 3.53553390593274 0.0
vertex -2.5 4.33012701892219 0.0
endloop
endfacet
facet normal 0.0 0.0 -1.0
outer loop
vertex -2.5 -4.33012701892219 0.0
vertex -2.5 4.33012701892219 0.0
vertex -2.5 4.59242549680257e-016 0.0
endloop
endfacet
facet normal 0.0 0.0 -1.0
outer loop
vertex -2.5 4.59242549680257e-016 0.0
vertex -2.5 4.33012701892219 0.0
vertex -2.41481456572267 0.647047612756304 0.0
endloop
endfacet
facet normal 0.0 0.0 -1.0
outer loop
vertex -2.41481456572267 0.647047612756304 0.0
vertex -2.5 4.33012701892219 0.0
vertex -1.2940952255126 4.82962913144534 0.0
endloop
endfacet
facet normal 0.0 0.0 -1.0
outer loop
vertex -2.41481456572267 0.647047612756304 0.0
vertex -1.2940952255126 4.82962913144534 0.0
vertex -2.1650635094611 1.25 0.0
endloop
endfacet
facet normal 0.0 0.0 -1.0
outer loop
vertex -2.1650635094611 1.25 0.0
vertex -1.2940952255126 4.82962913144534 0.0
vertex -1.76776695296637 1.76776695296637 0.0
endloop
endfacet
facet normal 0.0 0.0 -1.0
outer loop
vertex -1.76776695296637 1.76776695296637 0.0
vertex -1.2940952255126 4.82962913144534 0.0
vertex -1.25 2.1650635094611 0.0
endloop
endfacet
facet normal 0.0 0.0 -1.0
outer loop
vertex -1.25 2.1650635094611 0.0
vertex -1.2940952255126 4.82962913144534 0.0
vertex 3.06161699786838e-016 5.0 0.0
endloop
endfacet
facet normal 0.0 0.0 -1.0
outer loop
vertex -1.25 2.1650635094611 0.0
vertex 3.06161699786838e-016 5.0 0.0
vertex -0.647047612756301 2.41481456572267 0.0
endloop
endfacet
facet normal 0.0 0.0 -1.0
outer loop
vertex -0.647047612756301 2.41481456572267 0.0
vertex 3.06161699786838e-016 5.0 0.0
vertex 3.06161699786838e-016 2.5 0.0
endloop
endfacet
facet normal 0.0 0.0 -1.0
outer loop
vertex 3.06161699786838e-016 2.5 0.0
vertex 3.06161699786838e-016 5.0 0.0
vertex 1.2940952255126 4.82962913144534 0.0
endloop
endfacet
facet normal 0.0 0.0 -1.0
outer loop
vertex 3.06161699786838e-016 2.5 0.0
vertex 1.2940952255126 4.82962913144534 0.0
vertex 0.647047612756303 2.41481456572267 0.0
endloop
endfacet
facet normal 0.0 0.0 -1.0
outer loop
vertex 0.647047612756303 2.41481456572267 0.0
vertex 1.2940952255126 4.82962913144534 0.0
vertex 1.25 2.1650635094611 0.0
endloop
endfacet
facet normal 0.0 0.0 -1.0
outer loop
vertex 1.25 2.1650635094611 0.0
vertex 1.2940952255126 4.82962913144534 0.0
vertex 1.76776695296637 1.76776695296637 0.0
endloop
endfacet
facet normal 0.0 0.0 -1.0
outer loop
vertex 1.76776695296637 1.76776695296637 0.0
vertex 1.2940952255126 4.82962913144534 0.0
vertex 2.5 4.33012701892219 0.0
endloop
endfacet
facet normal 0.0 0.0 -1.0
outer loop
vertex 1.76776695296637 1.76776695296637 0.0
vertex 2.5 4.33012701892219 0.0
vertex 2.1650635094611 1.25 0.0
endloop
endfacet
facet normal 0.0 0.0 -1.0
outer loop
vertex 2.1650635094611 1.25 0.0
vertex 2.5 4.33012701892219 0.0
vertex 2.41481456572267 0.647047612756302 0.0
endloop
endfacet
facet normal 0.0 0.0 -1.0
outer loop
vertex 2.41481456572267 0.647047612756302 0.0
vertex 2.5 4.33012701892219 0.0
vertex 2.5 -1.53080849893419e-016 0.0
endloop
endfacet
facet normal 0.0 0.0 -1.0
outer loop
vertex -2.5 -4.33012701892219 0.0
vertex -2.41481456572267 -0.647047612756301 0.0
vertex -1.29409522551261 -4.82962913144534 0.0
endloop
endfacet
facet normal 0.0 0.0 -1.0
outer loop
vertex -2.41481456572267 -0.647047612756301 0.0
vertex -2.5 -4.33012701892219 0.0
vertex -2.5 4.59242549680257e-016 0.0
endloop
endfacet
facet normal 0.0 0.0 -1.0
outer loop
vertex -1.29409522551261 -4.82962913144534 0.0
vertex -2.41481456572267 -0.647047612756301 0.0
vertex -2.1650635094611 -1.25 0.0
endloop
endfacet
facet normal 0.0 0.0 -1.0
outer loop
vertex -1.29409522551261 -4.82962913144534 0.0
vertex -2.1650635094611 -1.25 0.0
vertex -1.76776695296637 -1.76776695296637 0.0
endloop
endfacet
facet normal 0.0 0.0 -1.0
outer loop
vertex -1.29409522551261 -4.82962913144534 0.0
vertex -1.76776695296637 -1.76776695296637 0.0
vertex -1.25 -2.1650635094611 0.0
endloop
endfacet
facet normal 0.0 0.0 -1.0
outer loop
vertex -1.29409522551261 -4.82962913144534 0.0
vertex -1.25 -2.1650635094611 0.0
vertex -9.18485099360515e-016 -5.0 0.0
endloop
endfacet
facet normal 0.0 0.0 -1.0
outer loop
vertex -9.18485099360515e-016 -5.0 0.0
vertex -1.25 -2.1650635094611 0.0
vertex -0.647047612756304 -2.41481456572267 0.0
endloop
endfacet
facet normal 0.0 0.0 -1.0
outer loop
vertex -9.18485099360515e-016 -5.0 0.0
vertex -0.647047612756304 -2.41481456572267 0.0
vertex 0.0 -2.5 0.0
endloop
endfacet
facet normal 0.0 0.0 -1.0
outer loop
vertex -9.18485099360515e-016 -5.0 0.0
vertex 0.0 -2.5 0.0
vertex 1.2940952255126 -4.82962913144534 0.0
endloop
endfacet
facet normal 0.0 0.0 -1.0
outer loop
vertex 1.2940952255126 -4.82962913144534 0.0
vertex 0.0 -2.5 0.0
vertex 0.647047612756302 -2.41481456572267 0.0
endloop
endfacet
facet normal 0.0 0.0 -1.0
outer loop
vertex 1.2940952255126 -4.82962913144534 0.0
vertex 0.647047612756302 -2.41481456572267 0.0
vertex 1.25 -2.1650635094611 0.0
endloop
endfacet
facet normal 0.0 0.0 -1.0
outer loop
vertex 1.2940952255126 -4.82962913144534 0.0
vertex 1.25 -2.1650635094611 0.0
vertex 1.76776695296637 -1.76776695296637 0.0
endloop
endfacet
facet normal 0.0 0.0 -1.0
outer loop
vertex 1.2940952255126 -4.82962913144534 0.0
vertex 1.76776695296637 -1.76776695296637 0.0
vertex 2.5 -4.3301270189222 0.0
endloop
endfacet
facet normal 0.0 0.0 -1.0
outer loop
vertex 2.5 -4.3301270189222 0.0
vertex 1.76776695296637 -1.76776695296637 0.0
vertex 2.1650635094611 -1.25 0.0
endloop
endfacet
facet normal 0.0 0.0 -1.0
outer loop
vertex 2.5 -4.3301270189222 0.0
vertex 2.1650635094611 -1.25 0.0
vertex 2.41481456572267 -0.647047612756302 0.0
endloop
endfacet
facet normal 0.0 0.0 -1.0
outer loop
vertex 2.5 -4.3301270189222 0.0
vertex 2.41481456572267 -0.647047612756302 0.0
vertex 2.5 -1.53080849893419e-016 0.0
endloop
endfacet
facet normal 0.0 0.0 -1.0
outer loop
vertex 2.5 -4.3301270189222 0.0
vertex 2.5 -1.53080849893419e-016 0.0
vertex 3.53553390593274 -3.53553390593274 0.0
endloop
endfacet
facet normal 0.0 0.0 -1.0
outer loop
vertex 3.53553390593274 -3.53553390593274 0.0
vertex 2.5 -1.53080849893419e-016 0.0
vertex 2.5 4.33012701892219 0.0
endloop
endfacet
facet normal 0.0 0.0 -1.0
outer loop
vertex 3.53553390593274 -3.53553390593274 0.0
vertex 2.5 4.33012701892219 0.0
vertex 3.53553390593274 3.53553390593274 0.0
endloop
endfacet
facet normal 0.0 0.0 -1.0
outer loop
vertex 3.53553390593274 -3.53553390593274 0.0
vertex 3.53553390593274 3.53553390593274 0.0
vertex 4.33012701892219 -2.5 0.0
endloop
endfacet
facet normal 0.0 0.0 -1.0
outer loop
vertex 4.33012701892219 -2.5 0.0
vertex 3.53553390593274 3.53553390593274 0.0
vertex 4.33012701892219 2.5 0.0
endloop
endfacet
facet normal 0.0 0.0 -1.0
outer loop
vertex 4.33012701892219 -2.5 0.0
vertex 4.33012701892219 2.5 0.0
vertex 4.82962913144534 -1.29409522551261 0.0
endloop
endfacet
facet normal 0.0 0.0 -1.0
outer loop
vertex 4.82962913144534 -1.29409522551261 0.0
vertex 4.33012701892219 2.5 0.0
vertex 4.82962913144534 1.2940952255126 0.0
endloop
endfacet
facet normal 0.0 0.0 -1.0
outer loop
vertex 4.82962913144534 -1.29409522551261 0.0
vertex 4.82962913144534 1.2940952255126 0.0
vertex 4.8683475024126 -1.0 0.0
endloop
endfacet
facet normal 0.0 0.0 -1.0
outer loop
vertex 4.8683475024126 -1.0 0.0
vertex 4.82962913144534 1.2940952255126 0.0
vertex 4.8683475024126 1.0 0.0
endloop
endfacet
facet normal 0.0 0.0 -1.0
outer loop
vertex 4.8683475024126 -1.0 0.0
vertex 4.8683475024126 1.0 0.0
vertex 30.3313830999456 1.0 0.0
endloop
endfacet
facet normal 0.0 0.0 -1.0
outer loop
vertex 4.8683475024126 -1.0 0.0
vertex 30.3313830999456 1.0 0.0
vertex 30.3313830999456 -1.0 0.0
endloop
endfacet
facet normal 0.0 0.0 -1.0
outer loop
vertex 30.3313830999456 -1.0 0.0
vertex 30.3313830999456 1.0 0.0
vertex 30.4349364905389 1.25 0.0
endloop
endfacet
facet normal 0.0 0.0 -1.0
outer loop
vertex 30.3313830999456 -1.0 0.0
vertex 30.4349364905389 1.25 0.0
vertex 30.4349364905389 -1.25 0.0
endloop
endfacet
facet normal 0.0 0.0 -1.0
outer loop
vertex 30.4349364905389 -1.25 0.0
vertex 30.4349364905389 1.25 0.0
vertex 30.8322330470336 1.76776695296637 0.0
endloop
endfacet
facet normal 0.0 0.0 -1.0
outer loop
vertex 30.4349364905389 -1.25 0.0
vertex 30.8322330470336 1.76776695296637 0.0
vertex 30.8322330470336 -1.76776695296637 0.0
endloop
endfacet
facet normal 0.0 0.0 -1.0
outer loop
vertex 30.8322330470336 -1.76776695296637 0.0
vertex 30.8322330470336 1.76776695296637 0.0
vertex 31.35 -2.16506350946109 0.0
endloop
endfacet
facet normal 0.0 0.0 -1.0
outer loop
vertex 31.35 -2.16506350946109 0.0
vertex 30.8322330470336 1.76776695296637 0.0
vertex 31.35 2.1650635094611 0.0
endloop
endfacet
facet normal 0.0 0.0 -1.0
outer loop
vertex 31.35 -2.16506350946109 0.0
vertex 31.35 2.1650635094611 0.0
vertex 31.9529523872437 -2.41481456572267 0.0
endloop
endfacet
facet normal 0.0 0.0 -1.0
outer loop
vertex 31.9529523872437 -2.41481456572267 0.0
vertex 31.35 2.1650635094611 0.0
vertex 31.9529523872437 2.41481456572267 0.0
endloop
endfacet
facet normal 0.0 0.0 -1.0
outer loop
vertex 31.9529523872437 -2.41481456572267 0.0
vertex 31.9529523872437 2.41481456572267 0.0
vertex 32.6 -2.5 0.0
endloop
endfacet
facet normal 0.0 0.0 -1.0
outer loop
vertex 32.6 -2.5 0.0
vertex 31.9529523872437 2.41481456572267 0.0
vertex 32.6 2.5 0.0
endloop
endfacet
facet normal 0.0 0.0 -1.0
outer loop
vertex 32.6 -2.5 0.0
vertex 32.6 2.5 0.0
vertex 33.2470476127563 2.41481456572267 0.0
endloop
endfacet
facet normal 0.0 0.0 -1.0
outer loop
vertex 32.6 -2.5 0.0
vertex 33.2470476127563 2.41481456572267 0.0
vertex 33.2470476127563 -2.41481456572267 0.0
endloop
endfacet
facet normal 0.0 0.0 -1.0
outer loop
vertex 33.2470476127563 -2.41481456572267 0.0
vertex 33.2470476127563 2.41481456572267 0.0
vertex 33.85 2.1650635094611 0.0
endloop
endfacet
facet normal 0.0 0.0 -1.0
outer loop
vertex 33.2470476127563 -2.41481456572267 0.0
vertex 33.85 2.1650635094611 0.0
vertex 33.85 -2.1650635094611 0.0
endloop
endfacet
facet normal 0.0 0.0 -1.0
outer loop
vertex 33.85 -2.1650635094611 0.0
vertex 33.85 2.1650635094611 0.0
vertex 34.3677669529664 1.76776695296637 0.0
endloop
endfacet
facet normal 0.0 0.0 -1.0
outer loop
vertex 33.85 -2.1650635094611 0.0
vertex 34.3677669529664 1.76776695296637 0.0
vertex 34.3677669529664 -1.76776695296637 0.0
endloop
endfacet
facet normal 0.0 0.0 -1.0
outer loop
vertex 34.3677669529664 -1.76776695296637 0.0
vertex 34.3677669529664 1.76776695296637 0.0
vertex 34.7650635094611 1.25 0.0
endloop
endfacet
facet normal 0.0 0.0 -1.0
outer loop
vertex 34.3677669529664 -1.76776695296637 0.0
vertex 34.7650635094611 1.25 0.0
vertex 34.7650635094611 -1.25 0.0
endloop
endfacet
facet normal 0.0 0.0 -1.0
outer loop
vertex 34.7650635094611 -1.25 0.0
vertex 34.7650635094611 1.25 0.0
vertex 34.8686169000544 1.0 0.0
endloop
endfacet
facet normal 0.0 0.0 -1.0
outer loop
vertex 34.7650635094611 -1.25 0.0
vertex 34.8686169000544 1.0 0.0
vertex 34.8686169000544 -1.0 0.0
endloop
endfacet
facet normal 0.0 0.0 -1.0
outer loop
vertex 34.8686169000544 -1.0 0.0
vertex 34.8686169000544 1.0 0.0
vertex 37.6 -3.52495810318487e-015 0.0
endloop
endfacet
facet normal 0.866025403784437 -0.500000000000002 0.0
outer loop
vertex 30.4349364905389 1.25 0.0
vertex 30.3313830999456 1.0 3.0
vertex 30.3313830999456 1.0 0.0
endloop
endfacet
facet normal 0.923879532511285 -0.382683432365094 -0.0
outer loop
vertex 30.3313830999456 1.0 3.0
vertex 30.4349364905389 1.25 0.0
vertex 30.4349364905389 1.25 3.0
endloop
endfacet
facet normal 0.707106781186547 -0.707106781186548 0.0
outer loop
vertex 30.8322330470336 1.76776695296637 0.0
vertex 30.4349364905389 1.25 3.0
vertex 30.4349364905389 1.25 0.0
endloop
endfacet
facet normal 0.866025403784437 -0.500000000000002 0.0
outer loop
vertex 30.4349364905389 1.25 3.0
vertex 30.8322330470336 1.76776695296637 0.0
vertex 30.8322330470336 1.76776695296637 3.0
endloop
endfacet
facet normal 0.5 -0.866025403784439 0.0
outer loop
vertex 31.35 2.1650635094611 3.0
vertex 30.8322330470336 1.76776695296637 0.0
vertex 31.35 2.1650635094611 0.0
endloop
endfacet
facet normal 0.707106781186547 -0.707106781186548 0.0
outer loop
vertex 30.8322330470336 1.76776695296637 0.0
vertex 31.35 2.1650635094611 3.0
vertex 30.8322330470336 1.76776695296637 3.0
endloop
endfacet
facet normal 0.258819045102521 -0.965925826289068 0.0
outer loop
vertex 31.9529523872437 2.41481456572267 3.0
vertex 31.35 2.1650635094611 0.0
vertex 31.9529523872437 2.41481456572267 0.0
endloop
endfacet
facet normal 0.5 -0.866025403784439 0.0
outer loop
vertex 31.35 2.1650635094611 0.0
vertex 31.9529523872437 2.41481456572267 3.0
vertex 31.35 2.1650635094611 3.0
endloop
endfacet
facet normal -2.85155516660701e-016 -1.0 0.0
outer loop
vertex 32.6 2.5 3.0
vertex 31.9529523872437 2.41481456572267 0.0
vertex 32.6 2.5 0.0
endloop
endfacet
facet normal 0.258819045102521 -0.965925826289068 0.0
outer loop
vertex 31.9529523872437 2.41481456572267 0.0
vertex 32.6 2.5 3.0
vertex 31.9529523872437 2.41481456572267 3.0
endloop
endfacet
facet normal -0.25881904510252 -0.965925826289068 0.0
outer loop
vertex 33.2470476127563 2.41481456572267 3.0
vertex 32.6 2.5 0.0
vertex 33.2470476127563 2.41481456572267 0.0
endloop
endfacet
facet normal -2.85155516660701e-016 -1.0 0.0
outer loop
vertex 32.6 2.5 0.0
vertex 33.2470476127563 2.41481456572267 3.0
vertex 32.6 2.5 3.0
endloop
endfacet
facet normal -0.5 -0.866025403784439 0.0
outer loop
vertex 33.85 2.1650635094611 3.0
vertex 33.2470476127563 2.41481456572267 0.0
vertex 33.85 2.1650635094611 0.0
endloop
endfacet
facet normal -0.25881904510252 -0.965925826289068 0.0
outer loop
vertex 33.2470476127563 2.41481456572267 0.0
vertex 33.85 2.1650635094611 3.0
vertex 33.2470476127563 2.41481456572267 3.0
endloop
endfacet
facet normal -0.707106781186548 -0.707106781186547 0.0
outer loop
vertex 34.3677669529664 1.76776695296637 3.0
vertex 33.85 2.1650635094611 0.0
vertex 34.3677669529664 1.76776695296637 0.0
endloop
endfacet
facet normal -0.5 -0.866025403784439 0.0
outer loop
vertex 33.85 2.1650635094611 0.0
vertex 34.3677669529664 1.76776695296637 3.0
vertex 33.85 2.1650635094611 3.0
endloop
endfacet
facet normal -0.707106781186548 -0.707106781186547 0.0
outer loop
vertex 34.3677669529664 1.76776695296637 3.0
vertex 34.7650635094611 1.25 0.0
vertex 34.7650635094611 1.25 3.0
endloop
endfacet
facet normal -0.866025403784439 -0.499999999999998 0.0
outer loop
vertex 34.7650635094611 1.25 0.0
vertex 34.3677669529664 1.76776695296637 3.0
vertex 34.3677669529664 1.76776695296637 0.0
endloop
endfacet
facet normal -0.866025403784439 -0.499999999999998 0.0
outer loop
vertex 34.7650635094611 1.25 3.0
vertex 34.8686169000544 1.0 0.0
vertex 34.8686169000544 1.0 3.0
endloop
endfacet
facet normal -0.923879532511288 -0.382683432365086 -0.0
outer loop
vertex 34.8686169000544 1.0 0.0
vertex 34.7650635094611 1.25 3.0
vertex 34.7650635094611 1.25 0.0
endloop
endfacet
facet normal -0.343797864715404 -0.939043677481047 -0.0
outer loop
vertex 37.6 -3.52495810318487e-015 3.0
vertex 34.8686169000544 1.0 0.0
vertex 37.6 -3.52495810318487e-015 0.0
endloop
endfacet
facet normal -0.343797864715404 -0.939043677481047 -0.0
outer loop
vertex 34.8686169000544 1.0 0.0
vertex 37.6 -3.52495810318487e-015 3.0
vertex 34.8686169000544 1.0 3.0
endloop
endfacet
facet normal -0.343797864715402 0.939043677481048 0.0
outer loop
vertex 34.8686169000544 -1.0 3.0
vertex 37.6 -3.52495810318487e-015 0.0
vertex 34.8686169000544 -1.0 0.0
endloop
endfacet
facet normal -0.343797864715402 0.939043677481048 0.0
outer loop
vertex 37.6 -3.52495810318487e-015 0.0
vertex 34.8686169000544 -1.0 3.0
vertex 37.6 -3.52495810318487e-015 3.0
endloop
endfacet
facet normal -0.923879532511289 0.382683432365085 0.0
outer loop
vertex 34.8686169000544 -1.0 3.0
vertex 34.7650635094611 -1.25 0.0
vertex 34.7650635094611 -1.25 3.0
endloop
endfacet
facet normal -0.86602540378444 0.499999999999998 0.0
outer loop
vertex 34.7650635094611 -1.25 0.0
vertex 34.8686169000544 -1.0 3.0
vertex 34.8686169000544 -1.0 0.0
endloop
endfacet
facet normal -0.86602540378444 0.499999999999998 0.0
outer loop
vertex 34.7650635094611 -1.25 3.0
vertex 34.3677669529664 -1.76776695296637 0.0
vertex 34.3677669529664 -1.76776695296637 3.0
endloop
endfacet
facet normal -0.707106781186547 0.707106781186548 0.0
outer loop
vertex 34.3677669529664 -1.76776695296637 0.0
vertex 34.7650635094611 -1.25 3.0
vertex 34.7650635094611 -1.25 0.0
endloop
endfacet
facet normal -0.5 0.866025403784439 0.0
outer loop
vertex 33.85 -2.1650635094611 3.0
vertex 34.3677669529664 -1.76776695296637 0.0
vertex 33.85 -2.1650635094611 0.0
endloop
endfacet
facet normal -0.707106781186547 0.707106781186548 0.0
outer loop
vertex 34.3677669529664 -1.76776695296637 0.0
vertex 33.85 -2.1650635094611 3.0
vertex 34.3677669529664 -1.76776695296637 3.0
endloop
endfacet
facet normal -0.25881904510252 0.965925826289068 0.0
outer loop
vertex 33.2470476127563 -2.41481456572267 3.0
vertex 33.85 -2.1650635094611 0.0
vertex 33.2470476127563 -2.41481456572267 0.0
endloop
endfacet
facet normal -0.5 0.866025403784439 0.0
outer loop
vertex 33.85 -2.1650635094611 0.0
vertex 33.2470476127563 -2.41481456572267 3.0
vertex 33.85 -2.1650635094611 3.0
endloop
endfacet
facet normal 2.67333296869407e-016 1.0 0.0
outer loop
vertex 32.6 -2.5 3.0
vertex 33.2470476127563 -2.41481456572267 0.0
vertex 32.6 -2.5 0.0
endloop
endfacet
facet normal -0.25881904510252 0.965925826289068 0.0
outer loop
vertex 33.2470476127563 -2.41481456572267 0.0
vertex 32.6 -2.5 3.0
vertex 33.2470476127563 -2.41481456572267 3.0
endloop
endfacet
facet normal 0.258819045102521 0.965925826289068 0.0
outer loop
vertex 31.9529523872437 -2.41481456572267 3.0
vertex 32.6 -2.5 0.0
vertex 31.9529523872437 -2.41481456572267 0.0
endloop
endfacet
facet normal 2.67333296869407e-016 1.0 0.0
outer loop
vertex 32.6 -2.5 0.0
vertex 31.9529523872437 -2.41481456572267 3.0
vertex 32.6 -2.5 3.0
endloop
endfacet
facet normal 0.500000000000001 0.866025403784438 0.0
outer loop
vertex 31.35 -2.16506350946109 3.0
vertex 31.9529523872437 -2.41481456572267 0.0
vertex 31.35 -2.16506350946109 0.0
endloop
endfacet
facet normal 0.258819045102521 0.965925826289068 0.0
outer loop
vertex 31.9529523872437 -2.41481456572267 0.0
vertex 31.35 -2.16506350946109 3.0
vertex 31.9529523872437 -2.41481456572267 3.0
endloop
endfacet
facet normal 0.707106781186548 0.707106781186547 0.0
outer loop
vertex 30.8322330470336 -1.76776695296637 3.0
vertex 31.35 -2.16506350946109 0.0
vertex 30.8322330470336 -1.76776695296637 0.0
endloop
endfacet
facet normal 0.500000000000001 0.866025403784438 0.0
outer loop
vertex 31.35 -2.16506350946109 0.0
vertex 30.8322330470336 -1.76776695296637 3.0
vertex 31.35 -2.16506350946109 3.0
endloop
endfacet
facet normal 0.866025403784437 0.500000000000002 0.0
outer loop
vertex 30.4349364905389 -1.25 0.0
vertex 30.8322330470336 -1.76776695296637 3.0
vertex 30.8322330470336 -1.76776695296637 0.0
endloop
endfacet
facet normal 0.707106781186548 0.707106781186547 0.0
outer loop
vertex 30.8322330470336 -1.76776695296637 3.0
vertex 30.4349364905389 -1.25 0.0
vertex 30.4349364905389 -1.25 3.0
endloop
endfacet
facet normal 0.923879532511284 0.382683432365096 -0.0
outer loop
vertex 30.3313830999456 -1.0 0.0
vertex 30.4349364905389 -1.25 3.0
vertex 30.4349364905389 -1.25 0.0
endloop
endfacet
facet normal 0.866025403784437 0.500000000000002 0.0
outer loop
vertex 30.4349364905389 -1.25 3.0
vertex 30.3313830999456 -1.0 0.0
vertex 30.3313830999456 -1.0 3.0
endloop
endfacet
facet normal -5.72696419104477e-033 -1.50590388759703e-031 -1.0
outer loop
vertex -4.8683475024126 1.0 3.0
vertex -32.5 -1.0 3.0
vertex -32.5 1.0 3.0
endloop
endfacet
facet normal -5.72696419104477e-033 -1.50590388759703e-031 -1.0
outer loop
vertex -32.5 -1.0 3.0
vertex -4.8683475024126 1.0 3.0
vertex -4.8683475024126 -1.0 3.0
endloop
endfacet
facet normal -5.72696419104477e-033 -1.50590388759703e-031 -1.0
outer loop
vertex -4.8683475024126 -1.0 3.0
vertex -4.8683475024126 1.0 3.0
vertex -4.82962913144534 1.29409522551261 3.0
endloop
endfacet
facet normal -5.72696419104477e-033 -1.50590388759703e-031 -1.0
outer loop
vertex -4.8683475024126 -1.0 3.0
vertex -4.82962913144534 1.29409522551261 3.0
vertex -4.82962913144534 -1.2940952255126 3.0
endloop
endfacet
facet normal -5.72696419104477e-033 -1.50590388759703e-031 -1.0
outer loop
vertex -4.82962913144534 -1.2940952255126 3.0
vertex -4.82962913144534 1.29409522551261 3.0
vertex -4.33012701892219 -2.5 3.0
endloop
endfacet
facet normal -5.72696419104477e-033 -1.50590388759703e-031 -1.0
outer loop
vertex -4.33012701892219 -2.5 3.0
vertex -4.82962913144534 1.29409522551261 3.0
vertex -4.33012701892219 2.5 3.0
endloop
endfacet
facet normal -5.72696419104477e-033 -1.50590388759703e-031 -1.0
outer loop
vertex -4.33012701892219 -2.5 3.0
vertex -4.33012701892219 2.5 3.0
vertex -3.53553390593274 -3.53553390593274 3.0
endloop
endfacet
facet normal -5.72696419104477e-033 -1.50590388759703e-031 -1.0
outer loop
vertex -3.53553390593274 -3.53553390593274 3.0
vertex -4.33012701892219 2.5 3.0
vertex -3.53553390593274 3.53553390593274 3.0
endloop
endfacet
facet normal -5.72696419104477e-033 -1.50590388759703e-031 -1.0
outer loop
vertex -3.53553390593274 -3.53553390593274 3.0
vertex -3.53553390593274 3.53553390593274 3.0
vertex -2.5 -4.33012701892219 3.0
endloop
endfacet
facet normal -5.72696419104477e-033 -1.50590388759703e-031 -1.0
outer loop
vertex -2.5 -4.33012701892219 3.0
vertex -3.53553390593274 3.53553390593274 3.0
vertex -2.5 4.33012701892219 3.0
endloop
endfacet
facet normal -5.72696419104477e-033 -1.50590388759703e-031 -1.0
outer loop
vertex -2.5 -4.33012701892219 3.0
vertex -2.5 4.33012701892219 3.0
vertex -2.5 4.59242549680257e-016 3.0
endloop
endfacet
facet normal -5.72696419104477e-033 -1.50590388759703e-031 -1.0
outer loop
vertex -2.5 4.59242549680257e-016 3.0
vertex -2.5 4.33012701892219 3.0
vertex -2.41481456572267 0.647047612756304 3.0
endloop
endfacet
facet normal -5.72696419104477e-033 -1.50590388759703e-031 -1.0
outer loop
vertex -2.41481456572267 0.647047612756304 3.0
vertex -2.5 4.33012701892219 3.0
vertex -1.2940952255126 4.82962913144534 3.0
endloop
endfacet
facet normal -5.72696419104477e-033 -1.50590388759703e-031 -1.0
outer loop
vertex -2.41481456572267 0.647047612756304 3.0
vertex -1.2940952255126 4.82962913144534 3.0
vertex -2.1650635094611 1.25 3.0
endloop
endfacet
facet normal -5.72696419104477e-033 -1.50590388759703e-031 -1.0
outer loop
vertex -2.1650635094611 1.25 3.0
vertex -1.2940952255126 4.82962913144534 3.0
vertex -1.76776695296637 1.76776695296637 3.0
endloop
endfacet
facet normal -5.72696419104477e-033 -1.50590388759703e-031 -1.0
outer loop
vertex -1.76776695296637 1.76776695296637 3.0
vertex -1.2940952255126 4.82962913144534 3.0
vertex -1.25 2.1650635094611 3.0
endloop
endfacet
facet normal -5.72696419104477e-033 -1.50590388759703e-031 -1.0
outer loop
vertex -1.25 2.1650635094611 3.0
vertex -1.2940952255126 4.82962913144534 3.0
vertex 3.06161699786838e-016 5.0 3.0
endloop
endfacet
facet normal -5.72696419104477e-033 -1.50590388759703e-031 -1.0
outer loop
vertex -1.25 2.1650635094611 3.0
vertex 3.06161699786838e-016 5.0 3.0
vertex -0.647047612756301 2.41481456572267 3.0
endloop
endfacet
facet normal -5.72696419104477e-033 -1.50590388759703e-031 -1.0
outer loop
vertex -0.647047612756301 2.41481456572267 3.0
vertex 3.06161699786838e-016 5.0 3.0
vertex 3.06161699786838e-016 2.5 3.0
endloop
endfacet
facet normal -5.72696419104477e-033 -1.50590388759703e-031 -1.0
outer loop
vertex 3.06161699786838e-016 2.5 3.0
vertex 3.06161699786838e-016 5.0 3.0
vertex 1.2940952255126 4.82962913144534 3.0
endloop
endfacet
facet normal -5.72696419104477e-033 -1.50590388759703e-031 -1.0
outer loop
vertex 3.06161699786838e-016 2.5 3.0
vertex 1.2940952255126 4.82962913144534 3.0
vertex 0.647047612756303 2.41481456572267 3.0
endloop
endfacet
facet normal -5.72696419104477e-033 -1.50590388759703e-031 -1.0
outer loop
vertex 0.647047612756303 2.41481456572267 3.0
vertex 1.2940952255126 4.82962913144534 3.0
vertex 1.25 2.1650635094611 3.0
endloop
endfacet
facet normal -5.72696419104477e-033 -1.50590388759703e-031 -1.0
outer loop
vertex 1.25 2.1650635094611 3.0
vertex 1.2940952255126 4.82962913144534 3.0
vertex 1.76776695296637 1.76776695296637 3.0
endloop
endfacet
facet normal -5.72696419104477e-033 -1.50590388759703e-031 -1.0
outer loop
vertex 1.76776695296637 1.76776695296637 3.0
vertex 1.2940952255126 4.82962913144534 3.0
vertex 2.5 4.33012701892219 3.0
endloop
endfacet
facet normal -5.72696419104477e-033 -1.50590388759703e-031 -1.0
outer loop
vertex 1.76776695296637 1.76776695296637 3.0
vertex 2.5 4.33012701892219 3.0
vertex 2.1650635094611 1.25 3.0
endloop
endfacet
facet normal -5.72696419104477e-033 -1.50590388759703e-031 -1.0
outer loop
vertex 2.1650635094611 1.25 3.0
vertex 2.5 4.33012701892219 3.0
vertex 2.41481456572267 0.647047612756302 3.0
endloop
endfacet
facet normal -5.72696419104477e-033 -1.50590388759703e-031 -1.0
outer loop
vertex 2.41481456572267 0.647047612756302 3.0
vertex 2.5 4.33012701892219 3.0
vertex 2.5 -1.53080849893419e-016 3.0
endloop
endfacet
facet normal -5.72696419104477e-033 -1.50590388759703e-031 -1.0
outer loop
vertex -2.5 -4.33012701892219 3.0
vertex -2.41481456572267 -0.647047612756301 3.0
vertex -1.29409522551261 -4.82962913144534 3.0
endloop
endfacet
facet normal -5.72696419104477e-033 -1.50590388759703e-031 -1.0
outer loop
vertex -2.41481456572267 -0.647047612756301 3.0
vertex -2.5 -4.33012701892219 3.0
vertex -2.5 4.59242549680257e-016 3.0
endloop
endfacet
facet normal -5.72696419104477e-033 -1.50590388759703e-031 -1.0
outer loop
vertex -1.29409522551261 -4.82962913144534 3.0
vertex -2.41481456572267 -0.647047612756301 3.0
vertex -2.1650635094611 -1.25 3.0
endloop
endfacet
facet normal -5.72696419104477e-033 -1.50590388759703e-031 -1.0
outer loop
vertex -1.29409522551261 -4.82962913144534 3.0
vertex -2.1650635094611 -1.25 3.0
vertex -1.76776695296637 -1.76776695296637 3.0
endloop
endfacet
facet normal -5.72696419104477e-033 -1.50590388759703e-031 -1.0
outer loop
vertex -1.29409522551261 -4.82962913144534 3.0
vertex -1.76776695296637 -1.76776695296637 3.0
vertex -1.25 -2.1650635094611 3.0
endloop
endfacet
facet normal -5.72696419104477e-033 -1.50590388759703e-031 -1.0
outer loop
vertex -1.29409522551261 -4.82962913144534 3.0
vertex -1.25 -2.1650635094611 3.0
vertex -9.18485099360515e-016 -5.0 3.0
endloop
endfacet
facet normal -5.72696419104477e-033 -1.50590388759703e-031 -1.0
outer loop
vertex -9.18485099360515e-016 -5.0 3.0
vertex -1.25 -2.1650635094611 3.0
vertex -0.647047612756304 -2.41481456572267 3.0
endloop
endfacet
facet normal -5.72696419104477e-033 -1.50590388759703e-031 -1.0
outer loop
vertex -9.18485099360515e-016 -5.0 3.0
vertex -0.647047612756304 -2.41481456572267 3.0
vertex 0.0 -2.5 3.0
endloop
endfacet
facet normal -5.72696419104477e-033 -1.50590388759703e-031 -1.0
outer loop
vertex -9.18485099360515e-016 -5.0 3.0
vertex 0.0 -2.5 3.0
vertex 1.2940952255126 -4.82962913144534 3.0
endloop
endfacet
facet normal -5.72696419104477e-033 -1.50590388759703e-031 -1.0
outer loop
vertex 1.2940952255126 -4.82962913144534 3.0
vertex 0.0 -2.5 3.0
vertex 0.647047612756302 -2.41481456572267 3.0
endloop
endfacet
facet normal -5.72696419104477e-033 -1.50590388759703e-031 -1.0
outer loop
vertex 1.2940952255126 -4.82962913144534 3.0
vertex 0.647047612756302 -2.41481456572267 3.0
vertex 1.25 -2.1650635094611 3.0
endloop
endfacet
facet normal -5.72696419104477e-033 -1.50590388759703e-031 -1.0
outer loop
vertex 1.2940952255126 -4.82962913144534 3.0
vertex 1.25 -2.1650635094611 3.0
vertex 1.76776695296637 -1.76776695296637 3.0
endloop
endfacet
facet normal -5.72696419104477e-033 -1.50590388759703e-031 -1.0
outer loop
vertex 1.2940952255126 -4.82962913144534 3.0
vertex 1.76776695296637 -1.76776695296637 3.0
vertex 2.5 -4.3301270189222 3.0
endloop
endfacet
facet normal -5.72696419104477e-033 -1.50590388759703e-031 -1.0
outer loop
vertex 2.5 -4.3301270189222 3.0
vertex 1.76776695296637 -1.76776695296637 3.0
vertex 2.1650635094611 -1.25 3.0
endloop
endfacet
facet normal -5.72696419104477e-033 -1.50590388759703e-031 -1.0
outer loop
vertex 2.5 -4.3301270189222 3.0
vertex 2.1650635094611 -1.25 3.0
vertex 2.41481456572267 -0.647047612756302 3.0
endloop
endfacet
facet normal -5.72696419104477e-033 -1.50590388759703e-031 -1.0
outer loop
vertex 2.5 -4.3301270189222 3.0
vertex 2.41481456572267 -0.647047612756302 3.0
vertex 2.5 -1.53080849893419e-016 3.0
endloop
endfacet
facet normal -5.72696419104477e-033 -1.50590388759703e-031 -1.0
outer loop
vertex 2.5 -4.3301270189222 3.0
vertex 2.5 -1.53080849893419e-016 3.0
vertex 3.53553390593274 -3.53553390593274 3.0
endloop
endfacet
facet normal -5.72696419104477e-033 -1.50590388759703e-031 -1.0
outer loop
vertex 3.53553390593274 -3.53553390593274 3.0
vertex 2.5 -1.53080849893419e-016 3.0
vertex 2.5 4.33012701892219 3.0
endloop
endfacet
facet normal -5.72696419104477e-033 -1.50590388759703e-031 -1.0
outer loop
vertex 3.53553390593274 -3.53553390593274 3.0
vertex 2.5 4.33012701892219 3.0
vertex 3.53553390593274 3.53553390593274 3.0
endloop
endfacet
facet normal -5.72696419104477e-033 -1.50590388759703e-031 -1.0
outer loop
vertex 3.53553390593274 -3.53553390593274 3.0
vertex 3.53553390593274 3.53553390593274 3.0
vertex 4.33012701892219 -2.5 3.0
endloop
endfacet
facet normal -5.72696419104477e-033 -1.50590388759703e-031 -1.0
outer loop
vertex 4.33012701892219 -2.5 3.0
vertex 3.53553390593274 3.53553390593274 3.0
vertex 4.33012701892219 2.5 3.0
endloop
endfacet
facet normal -5.72696419104477e-033 -1.50590388759703e-031 -1.0
outer loop
vertex 4.33012701892219 -2.5 3.0
vertex 4.33012701892219 2.5 3.0
vertex 4.82962913144534 -1.29409522551261 3.0
endloop
endfacet
facet normal -5.72696419104477e-033 -1.50590388759703e-031 -1.0
outer loop
vertex 4.82962913144534 -1.29409522551261 3.0
vertex 4.33012701892219 2.5 3.0
vertex 4.82962913144534 1.2940952255126 3.0
endloop
endfacet
facet normal -5.72696419104477e-033 -1.50590388759703e-031 -1.0
outer loop
vertex 4.82962913144534 -1.29409522551261 3.0
vertex 4.82962913144534 1.2940952255126 3.0
vertex 4.8683475024126 -1.0 3.0
endloop
endfacet
facet normal -5.72696419104477e-033 -1.50590388759703e-031 -1.0
outer loop
vertex 4.8683475024126 -1.0 3.0
vertex 4.82962913144534 1.2940952255126 3.0
vertex 4.8683475024126 1.0 3.0
endloop
endfacet
facet normal -5.72696419104477e-033 -1.50590388759703e-031 -1.0
outer loop
vertex 4.8683475024126 -1.0 3.0
vertex 4.8683475024126 1.0 3.0
vertex 30.3313830999456 1.0 3.0
endloop
endfacet
facet normal -5.72696419104477e-033 -1.50590388759703e-031 -1.0
outer loop
vertex 4.8683475024126 -1.0 3.0
vertex 30.3313830999456 1.0 3.0
vertex 30.3313830999456 -1.0 3.0
endloop
endfacet
facet normal -5.72696419104477e-033 -1.50590388759703e-031 -1.0
outer loop
vertex 30.3313830999456 -1.0 3.0
vertex 30.3313830999456 1.0 3.0
vertex 30.4349364905389 1.25 3.0
endloop
endfacet
facet normal -5.72696419104477e-033 -1.50590388759703e-031 -1.0
outer loop
vertex 30.3313830999456 -1.0 3.0
vertex 30.4349364905389 1.25 3.0
vertex 30.4349364905389 -1.25 3.0
endloop
endfacet
facet normal -5.72696419104477e-033 -1.50590388759703e-031 -1.0
outer loop
vertex 30.4349364905389 -1.25 3.0
vertex 30.4349364905389 1.25 3.0
vertex 30.8322330470336 1.76776695296637 3.0
endloop
endfacet
facet normal -5.72696419104477e-033 -1.50590388759703e-031 -1.0
outer loop
vertex 30.4349364905389 -1.25 3.0
vertex 30.8322330470336 1.76776695296637 3.0
vertex 30.8322330470336 -1.76776695296637 3.0
endloop
endfacet
facet normal -5.72696419104477e-033 -1.50590388759703e-031 -1.0
outer loop
vertex 30.8322330470336 -1.76776695296637 3.0
vertex 30.8322330470336 1.76776695296637 3.0
vertex 31.35 -2.16506350946109 3.0
endloop
endfacet
facet normal -5.72696419104477e-033 -1.50590388759703e-031 -1.0
outer loop
vertex 31.35 -2.16506350946109 3.0
vertex 30.8322330470336 1.76776695296637 3.0
vertex 31.35 2.1650635094611 3.0
endloop
endfacet
facet normal -5.72696419104477e-033 -1.50590388759703e-031 -1.0
outer loop
vertex 31.35 -2.16506350946109 3.0
vertex 31.35 2.1650635094611 3.0
vertex 31.9529523872437 -2.41481456572267 3.0
endloop
endfacet
facet normal -5.72696419104477e-033 -1.50590388759703e-031 -1.0
outer loop
vertex 31.9529523872437 -2.41481456572267 3.0
vertex 31.35 2.1650635094611 3.0
vertex 31.9529523872437 2.41481456572267 3.0
endloop
endfacet
facet normal -5.72696419104477e-033 -1.50590388759703e-031 -1.0
outer loop
vertex 31.9529523872437 -2.41481456572267 3.0
vertex 31.9529523872437 2.41481456572267 3.0
vertex 32.6 -2.5 3.0
endloop
endfacet
facet normal -5.72696419104477e-033 -1.50590388759703e-031 -1.0
outer loop
vertex 32.6 -2.5 3.0
vertex 31.9529523872437 2.41481456572267 3.0
vertex 32.6 2.5 3.0
endloop
endfacet
facet normal -5.72696419104477e-033 -1.50590388759703e-031 -1.0
outer loop
vertex 32.6 -2.5 3.0
vertex 32.6 2.5 3.0
vertex 33.2470476127563 2.41481456572267 3.0
endloop
endfacet
facet normal -5.72696419104477e-033 -1.50590388759703e-031 -1.0
outer loop
vertex 32.6 -2.5 3.0
vertex 33.2470476127563 2.41481456572267 3.0
vertex 33.2470476127563 -2.41481456572267 3.0
endloop
endfacet
facet normal -5.72696419104477e-033 -1.50590388759703e-031 -1.0
outer loop
vertex 33.2470476127563 -2.41481456572267 3.0
vertex 33.2470476127563 2.41481456572267 3.0
vertex 33.85 2.1650635094611 3.0
endloop
endfacet
facet normal -5.72696419104477e-033 -1.50590388759703e-031 -1.0
outer loop
vertex 33.2470476127563 -2.41481456572267 3.0
vertex 33.85 2.1650635094611 3.0
vertex 33.85 -2.1650635094611 3.0
endloop
endfacet
facet normal -5.72696419104477e-033 -1.50590388759703e-031 -1.0
outer loop
vertex 33.85 -2.1650635094611 3.0
vertex 33.85 2.1650635094611 3.0
vertex 34.3677669529664 1.76776695296637 3.0
endloop
endfacet
facet normal -5.72696419104477e-033 -1.50590388759703e-031 -1.0
outer loop
vertex 33.85 -2.1650635094611 3.0
vertex 34.3677669529664 1.76776695296637 3.0
vertex 34.3677669529664 -1.76776695296637 3.0
endloop
endfacet
facet normal -5.72696419104477e-033 -1.50590388759703e-031 -1.0
outer loop
vertex 34.3677669529664 -1.76776695296637 3.0
vertex 34.3677669529664 1.76776695296637 3.0
vertex 34.7650635094611 1.25 3.0
endloop
endfacet
facet normal -5.72696419104477e-033 -1.50590388759703e-031 -1.0
outer loop
vertex 34.3677669529664 -1.76776695296637 3.0
vertex 34.7650635094611 1.25 3.0
vertex 34.7650635094611 -1.25 3.0
endloop
endfacet
facet normal -5.72696419104477e-033 -1.50590388759703e-031 -1.0
outer loop
vertex 34.7650635094611 -1.25 3.0
vertex 34.7650635094611 1.25 3.0
vertex 34.8686169000544 1.0 3.0
endloop
endfacet
facet normal -5.72696419104477e-033 -1.50590388759703e-031 -1.0
outer loop
vertex 34.7650635094611 -1.25 3.0
vertex 34.8686169000544 1.0 3.0
vertex 34.8686169000544 -1.0 3.0
endloop
endfacet
facet normal -5.72696419104477e-033 -1.50590388759703e-031 -1.0
outer loop
vertex 34.8686169000544 -1.0 3.0
vertex 34.8686169000544 1.0 3.0
vertex 37.6 -3.52495810318487e-015 3.0
endloop
endfacet
facet normal 1.3843432334228e-017 1.0 -0.0
outer loop
vertex 4.8683475024126 1.0 3.0
vertex 30.3313830999456 1.0 0.0
vertex 4.8683475024126 1.0 0.0
endloop
endfacet
facet normal 1.3843432334228e-017 1.0 -0.0
outer loop
vertex 30.3313830999456 1.0 0.0
vertex 4.8683475024126 1.0 3.0
vertex 30.3313830999456 1.0 3.0
endloop
endfacet
facet normal -0.0 1.0 -0.0
outer loop
vertex 4.8683475024126 -1.0 3.0
vertex 30.3313830999456 -1.0 0.0
vertex 4.8683475024126 -1.0 0.0
endloop
endfacet
facet normal -0.0 1.0 -0.0
outer loop
vertex 30.3313830999456 -1.0 0.0
vertex 4.8683475024126 -1.0 3.0
vertex 30.3313830999456 -1.0 3.0
endloop
endfacet
facet normal 0.0 0.0 -1.0
outer loop
vertex -32.5 2.5 3.0
vertex -32.5 -2.5 3.0
vertex -37.5 1.05748743095546e-015 3.0
endloop
endfacet
facet normal 0.0 0.0 -1.0
outer loop
vertex -32.5 -2.5 3.0
vertex -32.5 2.5 3.0
vertex -32.5 1.0 3.0
endloop
endfacet
facet normal 0.0 0.0 -1.0
outer loop
vertex -32.5 -2.5 3.0
vertex -32.5 1.0 3.0
vertex -32.5 -1.0 3.0
endloop
endfacet
facet normal -1.0 1.87997765503193e-015 0.0
outer loop
vertex -32.5 -1.0 3.0
vertex -32.5 -2.5 0.0
vertex -32.5 -2.5 3.0
endloop
endfacet
facet normal -1.0 1.87997765503193e-015 0.0
outer loop
vertex -32.5 -2.5 0.0
vertex -32.5 -1.0 3.0
vertex -32.5 -1.0 0.0
endloop
endfacet
facet normal 0.447213595499958 0.894427190999916 0.0
outer loop
vertex -37.5 1.05748743095546e-015 3.0
vertex -32.5 -2.5 0.0
vertex -37.5 1.05748743095546e-015 0.0
endloop
endfacet
facet normal 0.447213595499958 0.894427190999916 0.0
outer loop
vertex -32.5 -2.5 0.0
vertex -37.5 1.05748743095546e-015 3.0
vertex -32.5 -2.5 3.0
endloop
endfacet
facet normal 0.447213595499958 -0.894427190999916 0.0
outer loop
vertex -32.5 2.5 3.0
vertex -37.5 1.05748743095546e-015 0.0
vertex -32.5 2.5 0.0
endloop
endfacet
facet normal 0.447213595499958 -0.894427190999916 0.0
outer loop
vertex -37.5 1.05748743095546e-015 0.0
vertex -32.5 2.5 3.0
vertex -37.5 1.05748743095546e-015 3.0
endloop
endfacet
facet normal -1.0 -1.87997765503193e-015 0.0
outer loop
vertex -32.5 2.5 3.0
vertex -32.5 1.0 0.0
vertex -32.5 1.0 3.0
endloop
endfacet
facet normal -1.0 -1.87997765503193e-015 0.0
outer loop
vertex -32.5 1.0 0.0
vertex -32.5 2.5 3.0
vertex -32.5 2.5 0.0
endloop
endfacet
facet normal 0.0 0.0 -1.0
outer loop
vertex -32.5 2.5 0.0
vertex -32.5 -2.5 0.0
vertex -37.5 1.05748743095546e-015 0.0
endloop
endfacet
facet normal 0.0 0.0 -1.0
outer loop
vertex -32.5 -2.5 0.0
vertex -32.5 2.5 0.0
vertex -32.5 1.0 0.0
endloop
endfacet
facet normal 0.0 0.0 -1.0
outer loop
vertex -32.5 -2.5 0.0
vertex -32.5 1.0 0.0
vertex -32.5 -1.0 0.0
endloop
endfacet
endsolid Nemapointa4
