  0
SECTION
  2
BLOCKS
  0
ENDSEC
  0
SECTION
  2
ENTITIES
  0
LINE
  8
0
 10
50
 20
1300
 11
-315
 21
1300
  0
LINE
  8
0
 10
-315
 20
1300
 11
-315
 21
973.41
  0
LINE
  8
0
 10
-315
 20
973.41
 11
-115
 21
627
  0
LINE
  8
0
 10
-115
 20
627
 11
-135
 21
520
  0
LINE
  8
0
 10
-135
 20
520
 11
-135
 21
25
  0
LINE
  8
0
 10
-135
 20
25
 11
50
 21
25
  0
LINE
  8
0
 10
50
 20
25
 11
50
 21
1300
  0
LINE
  8
0
 10
23.0866
 20
1245.38
 11
21.4645
 21
1246.46
  0
LINE
  8
0
 10
21.4645
 20
1246.46
 11
20.3806
 21
1248.09
  0
LINE
  8
0
 10
20.3806
 20
1248.09
 11
20
 21
1250
  0
LINE
  8
0
 10
20
 20
1250
 11
20.3806
 21
1251.91
  0
LINE
  8
0
 10
20.3806
 20
1251.91
 11
21.4645
 21
1253.54
  0
LINE
  8
0
 10
21.4645
 20
1253.54
 11
23.0866
 21
1254.62
  0
LINE
  8
0
 10
23.0866
 20
1254.62
 11
25
 21
1255
  0
LINE
  8
0
 10
25
 20
1255
 11
26.9134
 21
1254.62
  0
LINE
  8
0
 10
26.9134
 20
1254.62
 11
28.5355
 21
1253.54
  0
LINE
  8
0
 10
28.5355
 20
1253.54
 11
29.6194
 21
1251.91
  0
LINE
  8
0
 10
29.6194
 20
1251.91
 11
30
 21
1250
  0
LINE
  8
0
 10
30
 20
1250
 11
29.6194
 21
1248.09
  0
LINE
  8
0
 10
29.6194
 20
1248.09
 11
28.5355
 21
1246.46
  0
LINE
  8
0
 10
28.5355
 20
1246.46
 11
26.9134
 21
1245.38
  0
LINE
  8
0
 10
26.9134
 20
1245.38
 11
25
 21
1245
  0
LINE
  8
0
 10
25
 20
1245
 11
23.0866
 21
1245.38
  0
LINE
  8
0
 10
23.0866
 20
1045.38
 11
21.4645
 21
1046.46
  0
LINE
  8
0
 10
21.4645
 20
1046.46
 11
20.3806
 21
1048.09
  0
LINE
  8
0
 10
20.3806
 20
1048.09
 11
20
 21
1050
  0
LINE
  8
0
 10
20
 20
1050
 11
20.3806
 21
1051.91
  0
LINE
  8
0
 10
20.3806
 20
1051.91
 11
21.4645
 21
1053.54
  0
LINE
  8
0
 10
21.4645
 20
1053.54
 11
23.0866
 21
1054.62
  0
LINE
  8
0
 10
23.0866
 20
1054.62
 11
25
 21
1055
  0
LINE
  8
0
 10
25
 20
1055
 11
26.9134
 21
1054.62
  0
LINE
  8
0
 10
26.9134
 20
1054.62
 11
28.5355
 21
1053.54
  0
LINE
  8
0
 10
28.5355
 20
1053.54
 11
29.6194
 21
1051.91
  0
LINE
  8
0
 10
29.6194
 20
1051.91
 11
30
 21
1050
  0
LINE
  8
0
 10
30
 20
1050
 11
29.6194
 21
1048.09
  0
LINE
  8
0
 10
29.6194
 20
1048.09
 11
28.5355
 21
1046.46
  0
LINE
  8
0
 10
28.5355
 20
1046.46
 11
26.9134
 21
1045.38
  0
LINE
  8
0
 10
26.9134
 20
1045.38
 11
25
 21
1045
  0
LINE
  8
0
 10
25
 20
1045
 11
23.0866
 21
1045.38
  0
LINE
  8
0
 10
23.0866
 20
845.381
 11
21.4645
 21
846.464
  0
LINE
  8
0
 10
21.4645
 20
846.464
 11
20.3806
 21
848.087
  0
LINE
  8
0
 10
20.3806
 20
848.087
 11
20
 21
850
  0
LINE
  8
0
 10
20
 20
850
 11
20.3806
 21
851.913
  0
LINE
  8
0
 10
20.3806
 20
851.913
 11
21.4645
 21
853.536
  0
LINE
  8
0
 10
21.4645
 20
853.536
 11
23.0866
 21
854.619
  0
LINE
  8
0
 10
23.0866
 20
854.619
 11
25
 21
855
  0
LINE
  8
0
 10
25
 20
855
 11
26.9134
 21
854.619
  0
LINE
  8
0
 10
26.9134
 20
854.619
 11
28.5355
 21
853.536
  0
LINE
  8
0
 10
28.5355
 20
853.536
 11
29.6194
 21
851.913
  0
LINE
  8
0
 10
29.6194
 20
851.913
 11
30
 21
850
  0
LINE
  8
0
 10
30
 20
850
 11
29.6194
 21
848.087
  0
LINE
  8
0
 10
29.6194
 20
848.087
 11
28.5355
 21
846.464
  0
LINE
  8
0
 10
28.5355
 20
846.464
 11
26.9134
 21
845.381
  0
LINE
  8
0
 10
26.9134
 20
845.381
 11
25
 21
845
  0
LINE
  8
0
 10
25
 20
845
 11
23.0866
 21
845.381
  0
LINE
  8
0
 10
23.0866
 20
645.381
 11
21.4645
 21
646.464
  0
LINE
  8
0
 10
21.4645
 20
646.464
 11
20.3806
 21
648.087
  0
LINE
  8
0
 10
20.3806
 20
648.087
 11
20
 21
650
  0
LINE
  8
0
 10
20
 20
650
 11
20.3806
 21
651.913
  0
LINE
  8
0
 10
20.3806
 20
651.913
 11
21.4645
 21
653.536
  0
LINE
  8
0
 10
21.4645
 20
653.536
 11
23.0866
 21
654.619
  0
LINE
  8
0
 10
23.0866
 20
654.619
 11
25
 21
655
  0
LINE
  8
0
 10
25
 20
655
 11
26.9134
 21
654.619
  0
LINE
  8
0
 10
26.9134
 20
654.619
 11
28.5355
 21
653.536
  0
LINE
  8
0
 10
28.5355
 20
653.536
 11
29.6194
 21
651.913
  0
LINE
  8
0
 10
29.6194
 20
651.913
 11
30
 21
650
  0
LINE
  8
0
 10
30
 20
650
 11
29.6194
 21
648.087
  0
LINE
  8
0
 10
29.6194
 20
648.087
 11
28.5355
 21
646.464
  0
LINE
  8
0
 10
28.5355
 20
646.464
 11
26.9134
 21
645.381
  0
LINE
  8
0
 10
26.9134
 20
645.381
 11
25
 21
645
  0
LINE
  8
0
 10
25
 20
645
 11
23.0866
 21
645.381
  0
LINE
  8
0
 10
23.0866
 20
445.381
 11
21.4645
 21
446.464
  0
LINE
  8
0
 10
21.4645
 20
446.464
 11
20.3806
 21
448.087
  0
LINE
  8
0
 10
20.3806
 20
448.087
 11
20
 21
450
  0
LINE
  8
0
 10
20
 20
450
 11
20.3806
 21
451.913
  0
LINE
  8
0
 10
20.3806
 20
451.913
 11
21.4645
 21
453.536
  0
LINE
  8
0
 10
21.4645
 20
453.536
 11
23.0866
 21
454.619
  0
LINE
  8
0
 10
23.0866
 20
454.619
 11
25
 21
455
  0
LINE
  8
0
 10
25
 20
455
 11
26.9134
 21
454.619
  0
LINE
  8
0
 10
26.9134
 20
454.619
 11
28.5355
 21
453.536
  0
LINE
  8
0
 10
28.5355
 20
453.536
 11
29.6194
 21
451.913
  0
LINE
  8
0
 10
29.6194
 20
451.913
 11
30
 21
450
  0
LINE
  8
0
 10
30
 20
450
 11
29.6194
 21
448.087
  0
LINE
  8
0
 10
29.6194
 20
448.087
 11
28.5355
 21
446.464
  0
LINE
  8
0
 10
28.5355
 20
446.464
 11
26.9134
 21
445.381
  0
LINE
  8
0
 10
26.9134
 20
445.381
 11
25
 21
445
  0
LINE
  8
0
 10
25
 20
445
 11
23.0866
 21
445.381
  0
LINE
  8
0
 10
23.0866
 20
245.381
 11
21.4645
 21
246.464
  0
LINE
  8
0
 10
21.4645
 20
246.464
 11
20.3806
 21
248.087
  0
LINE
  8
0
 10
20.3806
 20
248.087
 11
20
 21
250
  0
LINE
  8
0
 10
20
 20
250
 11
20.3806
 21
251.913
  0
LINE
  8
0
 10
20.3806
 20
251.913
 11
21.4645
 21
253.536
  0
LINE
  8
0
 10
21.4645
 20
253.536
 11
23.0866
 21
254.619
  0
LINE
  8
0
 10
23.0866
 20
254.619
 11
25
 21
255
  0
LINE
  8
0
 10
25
 20
255
 11
26.9134
 21
254.619
  0
LINE
  8
0
 10
26.9134
 20
254.619
 11
28.5355
 21
253.536
  0
LINE
  8
0
 10
28.5355
 20
253.536
 11
29.6194
 21
251.913
  0
LINE
  8
0
 10
29.6194
 20
251.913
 11
30
 21
250
  0
LINE
  8
0
 10
30
 20
250
 11
29.6194
 21
248.087
  0
LINE
  8
0
 10
29.6194
 20
248.087
 11
28.5355
 21
246.464
  0
LINE
  8
0
 10
28.5355
 20
246.464
 11
26.9134
 21
245.381
  0
LINE
  8
0
 10
26.9134
 20
245.381
 11
25
 21
245
  0
LINE
  8
0
 10
25
 20
245
 11
23.0866
 21
245.381
  0
LINE
  8
0
 10
23.0866
 20
45.3806
 11
21.4645
 21
46.4645
  0
LINE
  8
0
 10
21.4645
 20
46.4645
 11
20.3806
 21
48.0866
  0
LINE
  8
0
 10
20.3806
 20
48.0866
 11
20
 21
50
  0
LINE
  8
0
 10
20
 20
50
 11
20.3806
 21
51.9134
  0
LINE
  8
0
 10
20.3806
 20
51.9134
 11
21.4645
 21
53.5355
  0
LINE
  8
0
 10
21.4645
 20
53.5355
 11
23.0866
 21
54.6194
  0
LINE
  8
0
 10
23.0866
 20
54.6194
 11
25
 21
55
  0
LINE
  8
0
 10
25
 20
55
 11
26.9134
 21
54.6194
  0
LINE
  8
0
 10
26.9134
 20
54.6194
 11
28.5355
 21
53.5355
  0
LINE
  8
0
 10
28.5355
 20
53.5355
 11
29.6194
 21
51.9134
  0
LINE
  8
0
 10
29.6194
 20
51.9134
 11
30
 21
50
  0
LINE
  8
0
 10
30
 20
50
 11
29.6194
 21
48.0866
  0
LINE
  8
0
 10
29.6194
 20
48.0866
 11
28.5355
 21
46.4645
  0
LINE
  8
0
 10
28.5355
 20
46.4645
 11
26.9134
 21
45.3806
  0
LINE
  8
0
 10
26.9134
 20
45.3806
 11
25
 21
45
  0
LINE
  8
0
 10
25
 20
45
 11
23.0866
 21
45.3806
  0
ENDSEC
  0
SECTION
  2
OBJECTS
  0
DICTIONARY
  0
ENDSEC
  0
EOF
